<svg width="32" height="32" viewBox="0 0 32 32" fill="none" xmlns="http://www.w3.org/2000/svg">
<path d="M7.99992 6.00008C7.99992 4.13341 11.5999 2.66675 15.9999 2.66675C20.3999 2.66675 23.9999 4.13341 23.9999 6.00008C23.9999 6.53341 23.7333 6.93341 23.3333 7.33341C22.1333 6.13341 19.3333 5.33341 15.9999 5.33341C12.6666 5.33341 9.86658 6.13341 8.66658 7.33341C8.26659 6.93341 7.99992 6.53341 7.99992 6.00008ZM15.9999 6.66675C13.0666 6.66675 10.7999 7.33341 9.86659 8.13341C11.3333 8.80008 13.4666 9.33341 15.9999 9.33341C18.5333 9.33341 20.6666 8.80008 22.1333 8.13341C21.1999 7.33341 18.9333 6.66675 15.9999 6.66675ZM18.6666 10.6667C18.6666 12.1334 17.4666 13.3334 15.9999 13.3334C14.5333 13.3334 13.3333 12.1334 13.3333 10.6667V10.5334C12.3999 10.4001 11.4666 10.2667 10.6666 10.0001V10.6667C10.6666 13.6001 13.0666 16.0001 15.9999 16.0001C18.9333 16.0001 21.3333 13.6001 21.3333 10.6667C21.3333 10.4001 21.3333 10.1334 21.1999 9.86675C20.3999 10.1334 19.4666 10.2667 18.5333 10.4001C18.6666 10.5334 18.6666 10.5334 18.6666 10.6667ZM21.8666 18.4001L20.9333 20.0001L20.6666 20.6667C22.6666 21.3334 24.1333 22.1334 24.1333 22.6667V26.8001H18.5333L17.3333 20.0001L18.5333 17.4667C17.7333 17.4667 16.9333 17.3334 15.9999 17.3334C15.0666 17.3334 14.2666 17.3334 13.4666 17.4667L14.6666 20.0001L13.4666 26.8001H7.86659V22.6667C7.86659 22.1334 9.33325 21.3334 11.3333 20.6667L11.0666 20.0001L10.2666 18.4001C7.59992 19.2001 5.33325 20.6667 5.33325 22.6667V29.3334H26.6666V22.6667C26.6666 20.6667 24.3999 19.2001 21.8666 18.4001Z" fill="#09648C"/>
</svg>
