<svg width="26" height="26" viewBox="0 0 26 26" fill="none" xmlns="http://www.w3.org/2000/svg">
<path d="M11.2223 1.07906C11.7264 0.675161 12.3532 0.455078 12.9992 0.455078C13.6452 0.455078 14.2719 0.675161 14.7761 1.07906L23.3074 7.90406C23.9818 8.44356 24.375 9.26093 24.375 10.1254V21.5313C24.375 22.2855 24.0754 23.0088 23.5421 23.5421C23.0088 24.0755 22.2855 24.3751 21.5312 24.3751H15.8438C15.5205 24.3751 15.2105 24.2467 14.982 24.0181C14.7534 23.7895 14.625 23.4795 14.625 23.1563V14.6251H11.375V23.1563C11.375 23.4795 11.2466 23.7895 11.018 24.0181C10.7895 24.2467 10.4795 24.3751 10.1562 24.3751H4.46875C3.71454 24.3751 2.99122 24.0755 2.45792 23.5421C1.92461 23.0088 1.625 22.2855 1.625 21.5313V10.1238C1.625 9.26093 2.01825 8.44356 2.69262 7.90406L11.2223 1.07906ZM13.2535 2.98193C13.1815 2.92445 13.0921 2.89314 13 2.89314C12.9079 2.89314 12.8185 2.92445 12.7465 2.98193L4.21525 9.80693C4.16746 9.8451 4.1289 9.89356 4.10245 9.94871C4.076 10.0039 4.06234 10.0643 4.0625 10.1254V21.5313C4.0625 21.7556 4.2445 21.9376 4.46875 21.9376H8.9375V13.4063C8.9375 13.0831 9.0659 12.7731 9.29446 12.5445C9.52302 12.316 9.83302 12.1876 10.1562 12.1876H15.8438C16.167 12.1876 16.477 12.316 16.7055 12.5445C16.9341 12.7731 17.0625 13.0831 17.0625 13.4063V21.9376H21.5312C21.639 21.9376 21.7423 21.8948 21.8185 21.8186C21.8947 21.7424 21.9375 21.6391 21.9375 21.5313V10.1238C21.9374 10.0629 21.9236 10.0028 21.8972 9.94798C21.8708 9.89313 21.8323 9.84493 21.7848 9.80693L13.2535 2.98193Z" fill="#F8F8F8"/>
</svg>
