<svg width="36" height="36" viewBox="0 0 36 36" fill="none" xmlns="http://www.w3.org/2000/svg">
<path d="M16.2411 29.65C16.0625 29.3489 15.8939 29.0356 15.7354 28.7103C15.517 28.2622 15.3351 27.8088 15.1899 27.35H6H5.65V27V25.8007V25.8H6C5.999 25.525 6.0675 25.275 6.2055 25.05C6.3435 24.825 6.525 24.65 6.75 24.525L16.2411 29.65ZM16.2411 29.65H3.35H16.2411ZM27.867 26.3655C27.214 27.0184 26.4189 27.3499 25.5004 27.35C25.5003 27.35 25.5001 27.35 25.5 27.35V27C24.676 27.001 23.97 26.7075 23.382 26.1195C22.794 25.5315 22.5 24.825 22.5 24L27.867 26.3655ZM27.867 26.3655C28.5201 25.7124 28.8511 24.9175 28.85 23.9996M27.867 26.3655L28.85 23.9996M25.5 20.65C25.4999 20.65 25.4997 20.65 25.4996 20.65L25.5 21V20.65ZM25.5 20.65C26.4177 20.649 27.2125 20.9801 27.8655 21.633M25.5 20.65L27.8655 21.633M28.85 23.9996C28.8499 23.0811 28.5184 22.286 27.8655 21.633M28.85 23.9996C28.85 23.9997 28.85 23.9999 28.85 24H28.5L27.8655 21.633M15 15.35C15.9187 15.35 16.7139 15.0185 17.367 14.3655M15 15.35V15L15.0004 15.35C15.0003 15.35 15.0001 15.35 15 15.35ZM15 15.35C14.0823 15.351 13.2875 15.0199 12.6345 14.367C11.9815 13.7139 11.65 12.9187 11.65 12H12L17.367 14.3655M17.367 14.3655C18.0199 13.7125 18.351 12.9177 18.35 12M17.367 14.3655L14.9998 8.65C15.9176 8.64893 16.7125 8.98 17.3655 9.63301C18.0185 10.2861 18.35 11.0813 18.35 12M18.35 12H18L18.35 11.9996C18.35 11.9997 18.35 11.9999 18.35 12ZM23.8932 29.1814L23.8567 28.9986L23.6846 28.9269C23.3933 28.8055 23.1212 28.6784 22.8681 28.5456C22.622 28.4164 22.3678 28.2572 22.1057 28.0668L21.9638 27.9637L21.7963 28.0157L19.8861 28.6085L18.6742 26.5483L20.1797 25.2391L20.3234 25.1141L20.2965 24.9255C20.2484 24.5891 20.225 24.2808 20.225 24C20.225 23.7192 20.2484 23.4109 20.2965 23.0745L20.3234 22.8859L20.1797 22.7609L18.6742 21.4517L19.8861 19.3915L21.7963 19.9843L21.9639 20.0363L22.1059 19.9331C22.3688 19.7418 22.6231 19.5828 22.8687 19.4549C23.1225 19.3227 23.3949 19.1952 23.6859 19.0725L23.8568 19.0005L23.8932 18.8186L24.2869 16.85H26.7131L27.1068 18.8186L27.1433 19.0014L27.3154 19.0731C27.603 19.1929 27.8715 19.3242 28.1211 19.4665C28.3643 19.6053 28.6166 19.781 28.8779 19.9955L29.0291 20.1197L29.2141 20.0559L31.115 19.4004L32.3286 21.5243L30.8203 22.8359L30.6726 22.9644L30.7048 23.1575C30.7514 23.4373 30.775 23.7305 30.775 24.0375C30.775 24.3445 30.7514 24.6377 30.7048 24.9175L30.6726 25.1106L30.8203 25.2391L32.3258 26.5483L31.1139 28.6085L29.2037 28.0157L29.0361 27.9637L28.8941 28.0669C28.6308 28.2585 28.3765 28.4182 28.1314 28.5473C27.88 28.6797 27.6085 28.8062 27.3167 28.9264L27.1435 28.9977L27.1068 29.1814L26.7131 31.15H24.2869L23.8932 29.1814ZM15 17.65C13.4436 17.65 12.1199 17.0999 11.01 15.99C9.9001 14.8801 9.35 13.5564 9.35 12C9.35 10.4436 9.9001 9.11987 11.01 8.00999C12.1199 6.9001 13.4436 6.35 15 6.35C16.5564 6.35 17.8801 6.9001 18.99 8.00999C20.0999 9.11987 20.65 10.4436 20.65 12C20.65 13.5564 20.0999 14.8801 18.99 15.99C17.8801 17.0999 16.5564 17.65 15 17.65Z" fill="white" stroke="#09648C" stroke-width="0.7"/>
</svg>
