<svg width="196" height="69" viewBox="0 0 196 69" fill="none" xmlns="http://www.w3.org/2000/svg">
<path d="M32.3197 23.315H26.3432C26.1727 22.3349 25.8584 21.4666 25.4003 20.7102C24.9423 19.9432 24.3723 19.2933 23.6905 18.7607C23.0087 18.228 22.231 17.8285 21.3574 17.5621C20.4945 17.2852 19.5623 17.1467 18.5609 17.1467C16.7817 17.1467 15.205 17.5941 13.8307 18.489C12.4565 19.3732 11.3805 20.6729 10.6028 22.3881C9.82506 24.0927 9.43621 26.1754 9.43621 28.6364C9.43621 31.1399 9.82506 33.2493 10.6028 34.9645C11.3911 36.669 12.4671 37.9581 13.8307 38.8317C15.205 39.6946 16.7764 40.1261 18.5449 40.1261C19.525 40.1261 20.4412 39.9982 21.2935 39.7425C22.1564 39.4762 22.9288 39.0874 23.6106 38.576C24.303 38.0646 24.8837 37.4361 25.3524 36.6903C25.8318 35.9446 26.1621 35.0923 26.3432 34.1335L32.3197 34.1655C32.096 35.7209 31.6113 37.1804 30.8655 38.544C30.1305 39.9077 29.1663 41.1115 27.9731 42.1555C26.78 43.1889 25.3844 43.9986 23.7864 44.5845C22.1883 45.1598 20.4146 45.4474 18.465 45.4474C15.5886 45.4474 13.0211 44.7816 10.7626 43.4499C8.50404 42.1183 6.72492 40.1953 5.4252 37.6811C4.12549 35.1669 3.47563 32.152 3.47563 28.6364C3.47563 25.1101 4.13082 22.0952 5.44118 19.5916C6.75155 17.0774 8.536 15.1545 10.7945 13.8228C13.053 12.4911 15.6099 11.8253 18.465 11.8253C20.2867 11.8253 21.9806 12.081 23.5467 12.5923C25.1127 13.1037 26.5083 13.8548 27.7334 14.8455C28.9586 15.8256 29.9653 17.0295 30.7537 18.457C31.5527 19.8739 32.0747 21.4933 32.3197 23.315ZM44.5565 45.4954C43.0011 45.4954 41.6002 45.2184 40.3537 44.6644C39.1179 44.0998 38.1378 43.2688 37.4134 42.1715C36.6996 41.0742 36.3427 39.7212 36.3427 38.1126C36.3427 36.7276 36.5984 35.5824 37.1098 34.6768C37.6211 33.7713 38.3189 33.0469 39.2032 32.5036C40.0874 31.9602 41.0835 31.5501 42.1915 31.2731C43.3101 30.9854 44.466 30.7777 45.6591 30.6499C47.0973 30.5007 48.2639 30.3675 49.1588 30.2504C50.0537 30.1225 50.7035 29.9308 51.1084 29.6751C51.5238 29.4087 51.7316 28.9986 51.7316 28.4446V28.3487C51.7316 27.1449 51.3747 26.2127 50.6609 25.5522C49.9471 24.8917 48.9191 24.5614 47.5767 24.5614C46.1598 24.5614 45.0359 24.8704 44.2049 25.4883C43.3846 26.1062 42.8307 26.8359 42.543 27.6776L37.1417 26.9105C37.5679 25.419 38.271 24.1726 39.2511 23.1712C40.2312 22.1591 41.4297 21.4027 42.8466 20.902C44.2635 20.3906 45.8296 20.1349 47.5448 20.1349C48.7273 20.1349 49.9045 20.2734 51.0764 20.5504C52.2483 20.8274 53.3189 21.2855 54.2884 21.9247C55.2579 22.5533 56.0356 23.4109 56.6215 24.4975C57.2181 25.5842 57.5164 26.9425 57.5164 28.5724V45H51.9553V41.6282H51.7635C51.412 42.31 50.9166 42.9492 50.2774 43.5458C49.6488 44.1317 48.8552 44.6058 47.8964 44.968C46.9482 45.3196 45.8349 45.4954 44.5565 45.4954ZM46.0586 41.2447C47.2199 41.2447 48.2266 41.0156 49.0789 40.5575C49.9312 40.0888 50.5863 39.4709 51.0444 38.7038C51.5132 37.9368 51.7476 37.1005 51.7476 36.195V33.3026C51.5665 33.4517 51.2575 33.5902 50.8207 33.718C50.3946 33.8459 49.9152 33.9577 49.3825 34.0536C48.8498 34.1495 48.3225 34.2347 47.8005 34.3093C47.2785 34.3839 46.8257 34.4478 46.4422 34.5011C45.5792 34.6183 44.8069 34.81 44.125 35.0763C43.4432 35.3427 42.9052 35.7156 42.5111 36.195C42.1169 36.6637 41.9198 37.271 41.9198 38.0167C41.9198 39.082 42.3086 39.8864 43.0863 40.4297C43.864 40.973 44.8548 41.2447 46.0586 41.2447ZM63.5888 45V12.2727H69.3736V24.5135H69.6133C69.9116 23.9169 70.3324 23.283 70.8758 22.6119C71.4191 21.93 72.1542 21.3494 73.081 20.87C74.0079 20.38 75.1904 20.1349 76.6286 20.1349C78.5249 20.1349 80.2348 20.6197 81.7582 21.5891C83.2923 22.5479 84.5068 23.9702 85.4017 25.8558C86.3072 27.7308 86.76 30.032 86.76 32.7592C86.76 35.4545 86.3179 37.745 85.4336 39.6307C84.5494 41.5163 83.3456 42.9545 81.8221 43.9453C80.2987 44.9361 78.5728 45.4315 76.6446 45.4315C75.2383 45.4315 74.0718 45.1971 73.1449 44.7283C72.2181 44.2596 71.4723 43.695 70.9077 43.0344C70.3537 42.3633 69.9223 41.7294 69.6133 41.1328H69.2777V45H63.5888ZM69.2618 32.7273C69.2618 34.3146 69.4855 35.7049 69.9329 36.8981C70.391 38.0913 71.0462 39.0234 71.8985 39.6946C72.7614 40.3551 73.8054 40.6854 75.0306 40.6854C76.309 40.6854 77.3797 40.3445 78.2426 39.6626C79.1055 38.9702 79.7554 38.0273 80.1922 36.8342C80.6396 35.6303 80.8633 34.2614 80.8633 32.7273C80.8633 31.2038 80.6449 29.8509 80.2081 28.6683C79.7714 27.4858 79.1215 26.5589 78.2586 25.8878C77.3956 25.2166 76.3196 24.881 75.0306 24.881C73.7948 24.881 72.7454 25.206 71.8825 25.8558C71.0196 26.5057 70.3644 27.4165 69.9169 28.5884C69.4802 29.7603 69.2618 31.1399 69.2618 32.7273Z" fill="black"/>
<path d="M98.821 45L89.5845 12.2727H95.9605L101.857 36.3228H102.161L108.457 12.2727H114.258L120.57 36.3388H120.858L126.754 12.2727H133.13L123.894 45H118.045L111.493 22.0366H111.238L104.67 45H98.821ZM141.544 45.4954C139.988 45.4954 138.587 45.2184 137.341 44.6644C136.105 44.0998 135.125 43.2688 134.401 42.1715C133.687 41.0742 133.33 39.7212 133.33 38.1126C133.33 36.7276 133.586 35.5824 134.097 34.6768C134.608 33.7713 135.306 33.0469 136.19 32.5036C137.075 31.9602 138.071 31.5501 139.179 31.2731C140.297 30.9854 141.453 30.7777 142.646 30.6499C144.085 30.5007 145.251 30.3675 146.146 30.2504C147.041 30.1225 147.691 29.9308 148.096 29.6751C148.511 29.4087 148.719 28.9986 148.719 28.4446V28.3487C148.719 27.1449 148.362 26.2127 147.648 25.5522C146.934 24.8917 145.906 24.5614 144.564 24.5614C143.147 24.5614 142.023 24.8704 141.192 25.4883C140.372 26.1062 139.818 26.8359 139.53 27.6776L134.129 26.9105C134.555 25.419 135.258 24.1726 136.238 23.1712C137.219 22.1591 138.417 21.4027 139.834 20.902C141.251 20.3906 142.817 20.1349 144.532 20.1349C145.715 20.1349 146.892 20.2734 148.064 20.5504C149.236 20.8274 150.306 21.2855 151.276 21.9247C152.245 22.5533 153.023 23.4109 153.609 24.4975C154.205 25.5842 154.504 26.9425 154.504 28.5724V45H148.943V41.6282H148.751C148.399 42.31 147.904 42.9492 147.265 43.5458C146.636 44.1317 145.842 44.6058 144.884 44.968C143.936 45.3196 142.822 45.4954 141.544 45.4954ZM143.046 41.2447C144.207 41.2447 145.214 41.0156 146.066 40.5575C146.918 40.0888 147.574 39.4709 148.032 38.7038C148.5 37.9368 148.735 37.1005 148.735 36.195V33.3026C148.554 33.4517 148.245 33.5902 147.808 33.718C147.382 33.8459 146.902 33.9577 146.37 34.0536C145.837 34.1495 145.31 34.2347 144.788 34.3093C144.266 34.3839 143.813 34.4478 143.429 34.5011C142.567 34.6183 141.794 34.81 141.112 35.0763C140.431 35.3427 139.893 35.7156 139.498 36.195C139.104 36.6637 138.907 37.271 138.907 38.0167C138.907 39.082 139.296 39.8864 140.074 40.4297C140.851 40.973 141.842 41.2447 143.046 41.2447ZM166.105 12.2727V45H160.32V12.2727H166.105ZM179.117 45.4954C177.562 45.4954 176.161 45.2184 174.914 44.6644C173.678 44.0998 172.698 43.2688 171.974 42.1715C171.26 41.0742 170.903 39.7212 170.903 38.1126C170.903 36.7276 171.159 35.5824 171.67 34.6768C172.182 33.7713 172.879 33.0469 173.764 32.5036C174.648 31.9602 175.644 31.5501 176.752 31.2731C177.871 30.9854 179.027 30.7777 180.22 30.6499C181.658 30.5007 182.824 30.3675 183.719 30.2504C184.614 30.1225 185.264 29.9308 185.669 29.6751C186.084 29.4087 186.292 28.9986 186.292 28.4446V28.3487C186.292 27.1449 185.935 26.2127 185.221 25.5522C184.508 24.8917 183.48 24.5614 182.137 24.5614C180.72 24.5614 179.596 24.8704 178.765 25.4883C177.945 26.1062 177.391 26.8359 177.104 27.6776L171.702 26.9105C172.128 25.419 172.832 24.1726 173.812 23.1712C174.792 22.1591 175.99 21.4027 177.407 20.902C178.824 20.3906 180.39 20.1349 182.105 20.1349C183.288 20.1349 184.465 20.2734 185.637 20.5504C186.809 20.8274 187.879 21.2855 188.849 21.9247C189.818 22.5533 190.596 23.4109 191.182 24.4975C191.779 25.5842 192.077 26.9425 192.077 28.5724V45H186.516V41.6282H186.324C185.973 42.31 185.477 42.9492 184.838 43.5458C184.209 44.1317 183.416 44.6058 182.457 44.968C181.509 45.3196 180.395 45.4954 179.117 45.4954ZM180.619 41.2447C181.78 41.2447 182.787 41.0156 183.639 40.5575C184.492 40.0888 185.147 39.4709 185.605 38.7038C186.074 37.9368 186.308 37.1005 186.308 36.195V33.3026C186.127 33.4517 185.818 33.5902 185.381 33.718C184.955 33.8459 184.476 33.9577 183.943 34.0536C183.41 34.1495 182.883 34.2347 182.361 34.3093C181.839 34.3839 181.386 34.4478 181.003 34.5011C180.14 34.6183 179.367 34.81 178.686 35.0763C178.004 35.3427 177.466 35.7156 177.072 36.195C176.677 36.6637 176.48 37.271 176.48 38.0167C176.48 39.082 176.869 39.8864 177.647 40.4297C178.425 40.973 179.415 41.2447 180.619 41.2447Z" fill="#09648C"/>
<path d="M15.7705 61.07C15.3038 61.07 14.8838 60.99 14.5105 60.83C14.1371 60.6633 13.8438 60.43 13.6305 60.13C13.4171 59.83 13.3105 59.48 13.3105 59.08H14.5305C14.5571 59.38 14.6738 59.6267 14.8805 59.82C15.0938 60.0133 15.3905 60.11 15.7705 60.11C16.1638 60.11 16.4705 60.0167 16.6905 59.83C16.9105 59.6367 17.0205 59.39 17.0205 59.09C17.0205 58.8567 16.9505 58.6667 16.8105 58.52C16.6771 58.3733 16.5071 58.26 16.3005 58.18C16.1005 58.1 15.8205 58.0133 15.4605 57.92C15.0071 57.8 14.6371 57.68 14.3505 57.56C14.0705 57.4333 13.8305 57.24 13.6305 56.98C13.4305 56.72 13.3305 56.3733 13.3305 55.94C13.3305 55.54 13.4305 55.19 13.6305 54.89C13.8305 54.59 14.1105 54.36 14.4705 54.2C14.8305 54.04 15.2471 53.96 15.7205 53.96C16.3938 53.96 16.9438 54.13 17.3705 54.47C17.8038 54.8033 18.0438 55.2633 18.0905 55.85H16.8305C16.8105 55.5967 16.6905 55.38 16.4705 55.2C16.2505 55.02 15.9605 54.93 15.6005 54.93C15.2738 54.93 15.0071 55.0133 14.8005 55.18C14.5938 55.3467 14.4905 55.5867 14.4905 55.9C14.4905 56.1133 14.5538 56.29 14.6805 56.43C14.8138 56.5633 14.9805 56.67 15.1805 56.75C15.3805 56.83 15.6538 56.9167 16.0005 57.01C16.4605 57.1367 16.8338 57.2633 17.1205 57.39C17.4138 57.5167 17.6605 57.7133 17.8605 57.98C18.0671 58.24 18.1705 58.59 18.1705 59.03C18.1705 59.3833 18.0738 59.7167 17.8805 60.03C17.6938 60.3433 17.4171 60.5967 17.0505 60.79C16.6905 60.9767 16.2638 61.07 15.7705 61.07ZM26.6856 55.4C27.119 55.4 27.5056 55.49 27.8456 55.67C28.1923 55.85 28.4623 56.1167 28.6556 56.47C28.8556 56.8233 28.9556 57.25 28.9556 57.75V61H27.8256V57.92C27.8256 57.4267 27.7023 57.05 27.4556 56.79C27.209 56.5233 26.8723 56.39 26.4456 56.39C26.019 56.39 25.679 56.5233 25.4256 56.79C25.179 57.05 25.0556 57.4267 25.0556 57.92V61H23.9256V57.92C23.9256 57.4267 23.8023 57.05 23.5556 56.79C23.309 56.5233 22.9723 56.39 22.5456 56.39C22.119 56.39 21.779 56.5233 21.5256 56.79C21.279 57.05 21.1556 57.4267 21.1556 57.92V61H20.0156V55.49H21.1556V56.12C21.3423 55.8933 21.579 55.7167 21.8656 55.59C22.1523 55.4633 22.459 55.4 22.7856 55.4C23.2256 55.4 23.619 55.4933 23.9656 55.68C24.3123 55.8667 24.579 56.1367 24.7656 56.49C24.9323 56.1567 25.1923 55.8933 25.5456 55.7C25.899 55.5 26.279 55.4 26.6856 55.4ZM33.2963 61.09C32.7763 61.09 32.3063 60.9733 31.8863 60.74C31.4663 60.5 31.1363 60.1667 30.8963 59.74C30.6563 59.3067 30.5363 58.8067 30.5363 58.24C30.5363 57.68 30.6596 57.1833 30.9063 56.75C31.1529 56.3167 31.4896 55.9833 31.9163 55.75C32.3429 55.5167 32.8196 55.4 33.3463 55.4C33.8729 55.4 34.3496 55.5167 34.7763 55.75C35.2029 55.9833 35.5396 56.3167 35.7863 56.75C36.0329 57.1833 36.1563 57.68 36.1563 58.24C36.1563 58.8 36.0296 59.2967 35.7763 59.73C35.5229 60.1633 35.1763 60.5 34.7363 60.74C34.3029 60.9733 33.8229 61.09 33.2963 61.09ZM33.2963 60.1C33.5896 60.1 33.8629 60.03 34.1163 59.89C34.3763 59.75 34.5863 59.54 34.7463 59.26C34.9063 58.98 34.9863 58.64 34.9863 58.24C34.9863 57.84 34.9096 57.5033 34.7563 57.23C34.6029 56.95 34.3996 56.74 34.1463 56.6C33.8929 56.46 33.6196 56.39 33.3263 56.39C33.0329 56.39 32.7596 56.46 32.5063 56.6C32.2596 56.74 32.0629 56.95 31.9163 57.23C31.7696 57.5033 31.6963 57.84 31.6963 58.24C31.6963 58.8333 31.8463 59.2933 32.1463 59.62C32.4529 59.94 32.8363 60.1 33.2963 60.1ZM40.1732 61.09C39.6532 61.09 39.1832 60.9733 38.7632 60.74C38.3432 60.5 38.0132 60.1667 37.7732 59.74C37.5332 59.3067 37.4132 58.8067 37.4132 58.24C37.4132 57.68 37.5365 57.1833 37.7832 56.75C38.0299 56.3167 38.3665 55.9833 38.7932 55.75C39.2199 55.5167 39.6965 55.4 40.2232 55.4C40.7499 55.4 41.2265 55.5167 41.6532 55.75C42.0799 55.9833 42.4165 56.3167 42.6632 56.75C42.9099 57.1833 43.0332 57.68 43.0332 58.24C43.0332 58.8 42.9065 59.2967 42.6532 59.73C42.3999 60.1633 42.0532 60.5 41.6132 60.74C41.1799 60.9733 40.6999 61.09 40.1732 61.09ZM40.1732 60.1C40.4665 60.1 40.7399 60.03 40.9932 59.89C41.2532 59.75 41.4632 59.54 41.6232 59.26C41.7832 58.98 41.8632 58.64 41.8632 58.24C41.8632 57.84 41.7865 57.5033 41.6332 57.23C41.4799 56.95 41.2765 56.74 41.0232 56.6C40.7699 56.46 40.4965 56.39 40.2032 56.39C39.9099 56.39 39.6365 56.46 39.3832 56.6C39.1365 56.74 38.9399 56.95 38.7932 57.23C38.6465 57.5033 38.5732 57.84 38.5732 58.24C38.5732 58.8333 38.7232 59.2933 39.0232 59.62C39.3299 59.94 39.7132 60.1 40.1732 60.1ZM45.9902 56.42V59.47C45.9902 59.6767 46.0368 59.8267 46.1302 59.92C46.2302 60.0067 46.3968 60.05 46.6302 60.05H47.3302V61H46.4302C45.9168 61 45.5235 60.88 45.2502 60.64C44.9768 60.4 44.8402 60.01 44.8402 59.47V56.42H44.1902V55.49H44.8402V54.12H45.9902V55.49H47.3302V56.42H45.9902ZM51.7309 55.4C52.1509 55.4 52.5242 55.49 52.8509 55.67C53.1842 55.85 53.4442 56.1167 53.6309 56.47C53.8242 56.8233 53.9209 57.25 53.9209 57.75V61H52.7909V57.92C52.7909 57.4267 52.6675 57.05 52.4209 56.79C52.1742 56.5233 51.8375 56.39 51.4109 56.39C50.9842 56.39 50.6442 56.5233 50.3909 56.79C50.1442 57.05 50.0209 57.4267 50.0209 57.92V61H48.8809V53.6H50.0209V56.13C50.2142 55.8967 50.4575 55.7167 50.7509 55.59C51.0509 55.4633 51.3775 55.4 51.7309 55.4ZM62.5827 61L60.9827 58.22H60.1127V61H58.9727V54.05H61.3727C61.906 54.05 62.356 54.1433 62.7227 54.33C63.096 54.5167 63.3727 54.7667 63.5527 55.08C63.7393 55.3933 63.8327 55.7433 63.8327 56.13C63.8327 56.5833 63.6993 56.9967 63.4327 57.37C63.1727 57.7367 62.7693 57.9867 62.2227 58.12L63.9427 61H62.5827ZM60.1127 57.31H61.3727C61.7993 57.31 62.1193 57.2033 62.3327 56.99C62.5527 56.7767 62.6627 56.49 62.6627 56.13C62.6627 55.77 62.556 55.49 62.3427 55.29C62.1293 55.0833 61.806 54.98 61.3727 54.98H60.1127V57.31ZM66.371 54.76C66.1643 54.76 65.991 54.69 65.851 54.55C65.711 54.41 65.641 54.2367 65.641 54.03C65.641 53.8233 65.711 53.65 65.851 53.51C65.991 53.37 66.1643 53.3 66.371 53.3C66.571 53.3 66.741 53.37 66.881 53.51C67.021 53.65 67.091 53.8233 67.091 54.03C67.091 54.2367 67.021 54.41 66.881 54.55C66.741 54.69 66.571 54.76 66.371 54.76ZM66.931 55.49V61H65.791V55.49H66.931ZM68.5477 58.22C68.5477 57.6667 68.6611 57.1767 68.8877 56.75C69.1211 56.3233 69.4344 55.9933 69.8277 55.76C70.2277 55.52 70.6711 55.4 71.1577 55.4C71.5177 55.4 71.8711 55.48 72.2177 55.64C72.5711 55.7933 72.8511 56 73.0577 56.26V53.6H74.2077V61H73.0577V60.17C72.8711 60.4367 72.6111 60.6567 72.2777 60.83C71.9511 61.0033 71.5744 61.09 71.1477 61.09C70.6677 61.09 70.2277 60.97 69.8277 60.73C69.4344 60.4833 69.1211 60.1433 68.8877 59.71C68.6611 59.27 68.5477 58.7733 68.5477 58.22ZM73.0577 58.24C73.0577 57.86 72.9777 57.53 72.8177 57.25C72.6644 56.97 72.4611 56.7567 72.2077 56.61C71.9544 56.4633 71.6811 56.39 71.3877 56.39C71.0944 56.39 70.8211 56.4633 70.5677 56.61C70.3144 56.75 70.1077 56.96 69.9477 57.24C69.7944 57.5133 69.7177 57.84 69.7177 58.22C69.7177 58.6 69.7944 58.9333 69.9477 59.22C70.1077 59.5067 70.3144 59.7267 70.5677 59.88C70.8277 60.0267 71.1011 60.1 71.3877 60.1C71.6811 60.1 71.9544 60.0267 72.2077 59.88C72.4611 59.7333 72.6644 59.52 72.8177 59.24C72.9777 58.9533 73.0577 58.62 73.0577 58.24ZM81.2551 58.11C81.2551 58.3167 81.2417 58.5033 81.2151 58.67H77.0051C77.0384 59.11 77.2017 59.4633 77.4951 59.73C77.7884 59.9967 78.1484 60.13 78.5751 60.13C79.1884 60.13 79.6217 59.8733 79.8751 59.36H81.1051C80.9384 59.8667 80.6351 60.2833 80.1951 60.61C79.7617 60.93 79.2217 61.09 78.5751 61.09C78.0484 61.09 77.5751 60.9733 77.1551 60.74C76.7417 60.5 76.4151 60.1667 76.1751 59.74C75.9417 59.3067 75.8251 58.8067 75.8251 58.24C75.8251 57.6733 75.9384 57.1767 76.1651 56.75C76.3984 56.3167 76.7217 55.9833 77.1351 55.75C77.5551 55.5167 78.0351 55.4 78.5751 55.4C79.0951 55.4 79.5584 55.5133 79.9651 55.74C80.3717 55.9667 80.6884 56.2867 80.9151 56.7C81.1417 57.1067 81.2551 57.5767 81.2551 58.11ZM80.0651 57.75C80.0584 57.33 79.9084 56.9933 79.6151 56.74C79.3217 56.4867 78.9584 56.36 78.5251 56.36C78.1317 56.36 77.7951 56.4867 77.5151 56.74C77.2351 56.9867 77.0684 57.3233 77.0151 57.75H80.0651ZM84.877 61.09C84.4436 61.09 84.0536 61.0133 83.707 60.86C83.367 60.7 83.097 60.4867 82.897 60.22C82.697 59.9467 82.5903 59.6433 82.577 59.31H83.757C83.777 59.5433 83.887 59.74 84.087 59.9C84.2936 60.0533 84.5503 60.13 84.857 60.13C85.177 60.13 85.4236 60.07 85.597 59.95C85.777 59.8233 85.867 59.6633 85.867 59.47C85.867 59.2633 85.767 59.11 85.567 59.01C85.3736 58.91 85.0636 58.8 84.637 58.68C84.2236 58.5667 83.887 58.4567 83.627 58.35C83.367 58.2433 83.1403 58.08 82.947 57.86C82.7603 57.64 82.667 57.35 82.667 56.99C82.667 56.6967 82.7536 56.43 82.927 56.19C83.1003 55.9433 83.347 55.75 83.667 55.61C83.9936 55.47 84.367 55.4 84.787 55.4C85.4136 55.4 85.917 55.56 86.297 55.88C86.6836 56.1933 86.8903 56.6233 86.917 57.17H85.777C85.757 56.9233 85.657 56.7267 85.477 56.58C85.297 56.4333 85.0536 56.36 84.747 56.36C84.447 56.36 84.217 56.4167 84.057 56.53C83.897 56.6433 83.817 56.7933 83.817 56.98C83.817 57.1267 83.8703 57.25 83.977 57.35C84.0836 57.45 84.2136 57.53 84.367 57.59C84.5203 57.6433 84.747 57.7133 85.047 57.8C85.447 57.9067 85.7736 58.0167 86.027 58.13C86.287 58.2367 86.5103 58.3967 86.697 58.61C86.8836 58.8233 86.9803 59.1067 86.987 59.46C86.987 59.7733 86.9003 60.0533 86.727 60.3C86.5536 60.5467 86.307 60.74 85.987 60.88C85.6736 61.02 85.3036 61.09 84.877 61.09ZM97.2041 61.07C96.7374 61.07 96.3174 60.99 95.9441 60.83C95.5707 60.6633 95.2774 60.43 95.0641 60.13C94.8507 59.83 94.7441 59.48 94.7441 59.08H95.9641C95.9907 59.38 96.1074 59.6267 96.3141 59.82C96.5274 60.0133 96.8241 60.11 97.2041 60.11C97.5974 60.11 97.9041 60.0167 98.1241 59.83C98.3441 59.6367 98.4541 59.39 98.4541 59.09C98.4541 58.8567 98.3841 58.6667 98.2441 58.52C98.1107 58.3733 97.9407 58.26 97.7341 58.18C97.5341 58.1 97.2541 58.0133 96.8941 57.92C96.4407 57.8 96.0707 57.68 95.7841 57.56C95.5041 57.4333 95.2641 57.24 95.0641 56.98C94.8641 56.72 94.7641 56.3733 94.7641 55.94C94.7641 55.54 94.8641 55.19 95.0641 54.89C95.2641 54.59 95.5441 54.36 95.9041 54.2C96.2641 54.04 96.6807 53.96 97.1541 53.96C97.8274 53.96 98.3774 54.13 98.8041 54.47C99.2374 54.8033 99.4774 55.2633 99.5241 55.85H98.2641C98.2441 55.5967 98.1241 55.38 97.9041 55.2C97.6841 55.02 97.3941 54.93 97.0341 54.93C96.7074 54.93 96.4407 55.0133 96.2341 55.18C96.0274 55.3467 95.9241 55.5867 95.9241 55.9C95.9241 56.1133 95.9874 56.29 96.1141 56.43C96.2474 56.5633 96.4141 56.67 96.6141 56.75C96.8141 56.83 97.0874 56.9167 97.4341 57.01C97.8941 57.1367 98.2674 57.2633 98.5541 57.39C98.8474 57.5167 99.0941 57.7133 99.2941 57.98C99.5007 58.24 99.6041 58.59 99.6041 59.03C99.6041 59.3833 99.5074 59.7167 99.3141 60.03C99.1274 60.3433 98.8507 60.5967 98.4841 60.79C98.1241 60.9767 97.6974 61.07 97.2041 61.07ZM108.119 55.4C108.553 55.4 108.939 55.49 109.279 55.67C109.626 55.85 109.896 56.1167 110.089 56.47C110.289 56.8233 110.389 57.25 110.389 57.75V61H109.259V57.92C109.259 57.4267 109.136 57.05 108.889 56.79C108.643 56.5233 108.306 56.39 107.879 56.39C107.453 56.39 107.113 56.5233 106.859 56.79C106.613 57.05 106.489 57.4267 106.489 57.92V61H105.359V57.92C105.359 57.4267 105.236 57.05 104.989 56.79C104.743 56.5233 104.406 56.39 103.979 56.39C103.553 56.39 103.213 56.5233 102.959 56.79C102.713 57.05 102.589 57.4267 102.589 57.92V61H101.449V55.49H102.589V56.12C102.776 55.8933 103.013 55.7167 103.299 55.59C103.586 55.4633 103.893 55.4 104.219 55.4C104.659 55.4 105.053 55.4933 105.399 55.68C105.746 55.8667 106.013 56.1367 106.199 56.49C106.366 56.1567 106.626 55.8933 106.979 55.7C107.333 55.5 107.713 55.4 108.119 55.4ZM111.96 58.22C111.96 57.6667 112.073 57.1767 112.3 56.75C112.533 56.3233 112.847 55.9933 113.24 55.76C113.64 55.52 114.08 55.4 114.56 55.4C114.993 55.4 115.37 55.4867 115.69 55.66C116.017 55.8267 116.277 56.0367 116.47 56.29V55.49H117.62V61H116.47V60.18C116.277 60.44 116.013 60.6567 115.68 60.83C115.347 61.0033 114.967 61.09 114.54 61.09C114.067 61.09 113.633 60.97 113.24 60.73C112.847 60.4833 112.533 60.1433 112.3 59.71C112.073 59.27 111.96 58.7733 111.96 58.22ZM116.47 58.24C116.47 57.86 116.39 57.53 116.23 57.25C116.077 56.97 115.873 56.7567 115.62 56.61C115.367 56.4633 115.093 56.39 114.8 56.39C114.507 56.39 114.233 56.4633 113.98 56.61C113.727 56.75 113.52 56.96 113.36 57.24C113.207 57.5133 113.13 57.84 113.13 58.22C113.13 58.6 113.207 58.9333 113.36 59.22C113.52 59.5067 113.727 59.7267 113.98 59.88C114.24 60.0267 114.513 60.1 114.8 60.1C115.093 60.1 115.367 60.0267 115.62 59.88C115.873 59.7333 116.077 59.52 116.23 59.24C116.39 58.9533 116.47 58.62 116.47 58.24ZM120.757 56.29C120.924 56.01 121.144 55.7933 121.417 55.64C121.697 55.48 122.027 55.4 122.407 55.4V56.58H122.117C121.671 56.58 121.331 56.6933 121.097 56.92C120.871 57.1467 120.757 57.54 120.757 58.1V61H119.617V55.49H120.757V56.29ZM125.285 56.42V59.47C125.285 59.6767 125.332 59.8267 125.425 59.92C125.525 60.0067 125.692 60.05 125.925 60.05H126.625V61H125.725C125.212 61 124.818 60.88 124.545 60.64C124.272 60.4 124.135 60.01 124.135 59.47V56.42H123.485V55.49H124.135V54.12H125.285V55.49H126.625V56.42H125.285ZM134.443 61.07C133.797 61.07 133.2 60.92 132.653 60.62C132.113 60.3133 131.683 59.89 131.363 59.35C131.05 58.8033 130.893 58.19 130.893 57.51C130.893 56.83 131.05 56.22 131.363 55.68C131.683 55.14 132.113 54.72 132.653 54.42C133.2 54.1133 133.797 53.96 134.443 53.96C135.097 53.96 135.693 54.1133 136.233 54.42C136.78 54.72 137.21 55.14 137.523 55.68C137.837 56.22 137.993 56.83 137.993 57.51C137.993 58.19 137.837 58.8033 137.523 59.35C137.21 59.89 136.78 60.3133 136.233 60.62C135.693 60.92 135.097 61.07 134.443 61.07ZM134.443 60.08C134.903 60.08 135.313 59.9767 135.673 59.77C136.033 59.5567 136.313 59.2567 136.513 58.87C136.72 58.4767 136.823 58.0233 136.823 57.51C136.823 56.9967 136.72 56.5467 136.513 56.16C136.313 55.7733 136.033 55.4767 135.673 55.27C135.313 55.0633 134.903 54.96 134.443 54.96C133.983 54.96 133.573 55.0633 133.213 55.27C132.853 55.4767 132.57 55.7733 132.363 56.16C132.163 56.5467 132.063 56.9967 132.063 57.51C132.063 58.0233 132.163 58.4767 132.363 58.87C132.57 59.2567 132.853 59.5567 133.213 59.77C133.573 59.9767 133.983 60.08 134.443 60.08ZM140.755 56.3C140.949 56.0467 141.212 55.8333 141.545 55.66C141.879 55.4867 142.255 55.4 142.675 55.4C143.155 55.4 143.592 55.52 143.985 55.76C144.385 55.9933 144.699 56.3233 144.925 56.75C145.152 57.1767 145.265 57.6667 145.265 58.22C145.265 58.7733 145.152 59.27 144.925 59.71C144.699 60.1433 144.385 60.4833 143.985 60.73C143.592 60.97 143.155 61.09 142.675 61.09C142.255 61.09 141.882 61.0067 141.555 60.84C141.229 60.6667 140.962 60.4533 140.755 60.2V63.62H139.615V55.49H140.755V56.3ZM144.105 58.22C144.105 57.84 144.025 57.5133 143.865 57.24C143.712 56.96 143.505 56.75 143.245 56.61C142.992 56.4633 142.719 56.39 142.425 56.39C142.139 56.39 141.865 56.4633 141.605 56.61C141.352 56.7567 141.145 56.97 140.985 57.25C140.832 57.53 140.755 57.86 140.755 58.24C140.755 58.62 140.832 58.9533 140.985 59.24C141.145 59.52 141.352 59.7333 141.605 59.88C141.865 60.0267 142.139 60.1 142.425 60.1C142.719 60.1 142.992 60.0267 143.245 59.88C143.505 59.7267 143.712 59.5067 143.865 59.22C144.025 58.9333 144.105 58.6 144.105 58.22ZM151.943 58.11C151.943 58.3167 151.929 58.5033 151.903 58.67H147.693C147.726 59.11 147.889 59.4633 148.183 59.73C148.476 59.9967 148.836 60.13 149.263 60.13C149.876 60.13 150.309 59.8733 150.563 59.36H151.793C151.626 59.8667 151.323 60.2833 150.883 60.61C150.449 60.93 149.909 61.09 149.263 61.09C148.736 61.09 148.263 60.9733 147.843 60.74C147.429 60.5 147.103 60.1667 146.863 59.74C146.629 59.3067 146.513 58.8067 146.513 58.24C146.513 57.6733 146.626 57.1767 146.853 56.75C147.086 56.3167 147.409 55.9833 147.823 55.75C148.243 55.5167 148.723 55.4 149.263 55.4C149.783 55.4 150.246 55.5133 150.653 55.74C151.059 55.9667 151.376 56.2867 151.603 56.7C151.829 57.1067 151.943 57.5767 151.943 58.11ZM150.753 57.75C150.746 57.33 150.596 56.9933 150.303 56.74C150.009 56.4867 149.646 56.36 149.213 56.36C148.819 56.36 148.483 56.4867 148.203 56.74C147.923 56.9867 147.756 57.3233 147.703 57.75H150.753ZM154.704 56.29C154.871 56.01 155.091 55.7933 155.364 55.64C155.644 55.48 155.974 55.4 156.354 55.4V56.58H156.064C155.618 56.58 155.278 56.6933 155.044 56.92C154.818 57.1467 154.704 57.54 154.704 58.1V61H153.564V55.49H154.704V56.29ZM157.522 58.22C157.522 57.6667 157.636 57.1767 157.862 56.75C158.096 56.3233 158.409 55.9933 158.802 55.76C159.202 55.52 159.642 55.4 160.122 55.4C160.556 55.4 160.932 55.4867 161.252 55.66C161.579 55.8267 161.839 56.0367 162.032 56.29V55.49H163.182V61H162.032V60.18C161.839 60.44 161.576 60.6567 161.242 60.83C160.909 61.0033 160.529 61.09 160.102 61.09C159.629 61.09 159.196 60.97 158.802 60.73C158.409 60.4833 158.096 60.1433 157.862 59.71C157.636 59.27 157.522 58.7733 157.522 58.22ZM162.032 58.24C162.032 57.86 161.952 57.53 161.792 57.25C161.639 56.97 161.436 56.7567 161.182 56.61C160.929 56.4633 160.656 56.39 160.362 56.39C160.069 56.39 159.796 56.4633 159.542 56.61C159.289 56.75 159.082 56.96 158.922 57.24C158.769 57.5133 158.692 57.84 158.692 58.22C158.692 58.6 158.769 58.9333 158.922 59.22C159.082 59.5067 159.289 59.7267 159.542 59.88C159.802 60.0267 160.076 60.1 160.362 60.1C160.656 60.1 160.929 60.0267 161.182 59.88C161.436 59.7333 161.639 59.52 161.792 59.24C161.952 58.9533 162.032 58.62 162.032 58.24ZM166.51 56.42V59.47C166.51 59.6767 166.556 59.8267 166.65 59.92C166.75 60.0067 166.916 60.05 167.15 60.05H167.85V61H166.95C166.436 61 166.043 60.88 165.77 60.64C165.496 60.4 165.36 60.01 165.36 59.47V56.42H164.71V55.49H165.36V54.12H166.51V55.49H167.85V56.42H166.51ZM169.98 54.76C169.774 54.76 169.6 54.69 169.46 54.55C169.32 54.41 169.25 54.2367 169.25 54.03C169.25 53.8233 169.32 53.65 169.46 53.51C169.6 53.37 169.774 53.3 169.98 53.3C170.18 53.3 170.35 53.37 170.49 53.51C170.63 53.65 170.7 53.8233 170.7 54.03C170.7 54.2367 170.63 54.41 170.49 54.55C170.35 54.69 170.18 54.76 169.98 54.76ZM170.54 55.49V61H169.4V55.49H170.54ZM174.927 61.09C174.407 61.09 173.937 60.9733 173.517 60.74C173.097 60.5 172.767 60.1667 172.527 59.74C172.287 59.3067 172.167 58.8067 172.167 58.24C172.167 57.68 172.29 57.1833 172.537 56.75C172.784 56.3167 173.12 55.9833 173.547 55.75C173.974 55.5167 174.45 55.4 174.977 55.4C175.504 55.4 175.98 55.5167 176.407 55.75C176.834 55.9833 177.17 56.3167 177.417 56.75C177.664 57.1833 177.787 57.68 177.787 58.24C177.787 58.8 177.66 59.2967 177.407 59.73C177.154 60.1633 176.807 60.5 176.367 60.74C175.934 60.9733 175.454 61.09 174.927 61.09ZM174.927 60.1C175.22 60.1 175.494 60.03 175.747 59.89C176.007 59.75 176.217 59.54 176.377 59.26C176.537 58.98 176.617 58.64 176.617 58.24C176.617 57.84 176.54 57.5033 176.387 57.23C176.234 56.95 176.03 56.74 175.777 56.6C175.524 56.46 175.25 56.39 174.957 56.39C174.664 56.39 174.39 56.46 174.137 56.6C173.89 56.74 173.694 56.95 173.547 57.23C173.4 57.5033 173.327 57.84 173.327 58.24C173.327 58.8333 173.477 59.2933 173.777 59.62C174.084 59.94 174.467 60.1 174.927 60.1ZM182.194 55.4C182.627 55.4 183.014 55.49 183.354 55.67C183.701 55.85 183.971 56.1167 184.164 56.47C184.357 56.8233 184.454 57.25 184.454 57.75V61H183.324V57.92C183.324 57.4267 183.201 57.05 182.954 56.79C182.707 56.5233 182.371 56.39 181.944 56.39C181.517 56.39 181.177 56.5233 180.924 56.79C180.677 57.05 180.554 57.4267 180.554 57.92V61H179.414V55.49H180.554V56.12C180.741 55.8933 180.977 55.7167 181.264 55.59C181.557 55.4633 181.867 55.4 182.194 55.4ZM188.408 61.09C187.975 61.09 187.585 61.0133 187.238 60.86C186.898 60.7 186.628 60.4867 186.428 60.22C186.228 59.9467 186.122 59.6433 186.108 59.31H187.288C187.308 59.5433 187.418 59.74 187.618 59.9C187.825 60.0533 188.082 60.13 188.388 60.13C188.708 60.13 188.955 60.07 189.128 59.95C189.308 59.8233 189.398 59.6633 189.398 59.47C189.398 59.2633 189.298 59.11 189.098 59.01C188.905 58.91 188.595 58.8 188.168 58.68C187.755 58.5667 187.418 58.4567 187.158 58.35C186.898 58.2433 186.672 58.08 186.478 57.86C186.292 57.64 186.198 57.35 186.198 56.99C186.198 56.6967 186.285 56.43 186.458 56.19C186.632 55.9433 186.878 55.75 187.198 55.61C187.525 55.47 187.898 55.4 188.318 55.4C188.945 55.4 189.448 55.56 189.828 55.88C190.215 56.1933 190.422 56.6233 190.448 57.17H189.308C189.288 56.9233 189.188 56.7267 189.008 56.58C188.828 56.4333 188.585 56.36 188.278 56.36C187.978 56.36 187.748 56.4167 187.588 56.53C187.428 56.6433 187.348 56.7933 187.348 56.98C187.348 57.1267 187.402 57.25 187.508 57.35C187.615 57.45 187.745 57.53 187.898 57.59C188.052 57.6433 188.278 57.7133 188.578 57.8C188.978 57.9067 189.305 58.0167 189.558 58.13C189.818 58.2367 190.042 58.3967 190.228 58.61C190.415 58.8233 190.512 59.1067 190.518 59.46C190.518 59.7733 190.432 60.0533 190.258 60.3C190.085 60.5467 189.838 60.74 189.518 60.88C189.205 61.02 188.835 61.09 188.408 61.09Z" fill="#09648C"/>
</svg>
