<svg width="38" height="38" viewBox="0 0 38 38" fill="none" xmlns="http://www.w3.org/2000/svg">
<path d="M26.6 28.5C28.174 28.5 29.45 27.2241 29.45 25.65C29.45 24.076 28.174 22.8 26.6 22.8C25.026 22.8 23.75 24.076 23.75 25.65C23.75 27.2241 25.026 28.5 26.6 28.5Z" fill="#09648C"/>
<path d="M30.59 17.0999H27.55C26.41 11.9699 21.47 8.54989 16.34 9.68989C12.54 10.4499 9.50005 13.2999 8.74005 17.0999H7.41005C5.51005 17.0999 3.80005 18.8099 3.80005 20.7099V23.1799C3.80005 24.5099 4.94005 25.6499 6.27005 25.6499H6.84005C6.84005 23.1799 8.93005 21.0899 11.4 21.0899C13.87 21.0899 15.96 23.1799 15.96 25.6499H22.04C22.04 23.1799 24.13 21.0899 26.6 21.0899C29.07 21.0899 31.16 23.1799 31.16 25.6499H31.73C33.06 25.6499 34.2 24.5099 34.2 23.1799V20.8999C34.2 18.8099 32.49 17.0999 30.59 17.0999ZM11.78 17.0999C12.73 13.4899 16.53 11.5899 19.95 12.5399C22.04 13.1099 23.75 14.8199 24.51 17.0999H11.78ZM11.4 22.7999C9.88005 22.7999 8.55005 24.1299 8.55005 25.6499C8.55005 27.1699 9.88005 28.4999 11.4 28.4999C12.92 28.4999 14.25 27.1699 14.25 25.6499C14.25 24.1299 12.92 22.7999 11.4 22.7999Z" fill="#09648C"/>
</svg>
