<svg width="94" height="59" viewBox="0 0 94 59" fill="none" xmlns="http://www.w3.org/2000/svg">
<path d="M70.6901 58.7115C75.5177 58.7115 79.4313 54.7979 79.4313 49.9702C79.4313 45.1426 75.5177 41.229 70.6901 41.229C65.8624 41.229 61.9489 45.1426 61.9489 49.9702C61.9489 54.7979 65.8624 58.7115 70.6901 58.7115Z" fill="#09648C"/>
<path d="M82.9278 23.7469H73.6038C70.1073 8.01269 54.9558 -2.4768 39.2216 1.0197C27.5666 3.3507 18.2426 12.0919 15.9116 23.7469H11.8324C6.00488 23.7469 0.760132 28.9917 0.760132 34.8192V42.3949C0.760132 46.4742 4.25663 49.9707 8.33587 49.9707H10.0841C10.0841 42.3949 16.4944 35.9847 24.0701 35.9847C31.6459 35.9847 38.0561 42.3949 38.0561 49.9707H56.7041C56.7041 42.3949 63.1143 35.9847 70.6901 35.9847C78.2658 35.9847 84.6761 42.3949 84.6761 49.9707H86.4243C90.5036 49.9707 94 46.4742 94 42.3949V35.4019C94 28.9917 88.7553 23.7469 82.9278 23.7469ZM25.2356 23.7469C28.1494 12.6747 39.8043 6.84719 50.2938 9.76094C56.7041 11.5092 61.9488 16.7539 64.2798 23.7469H25.2356ZM24.0701 41.2294C19.4081 41.2294 15.3289 45.3087 15.3289 49.9707C15.3289 54.6327 19.4081 58.7119 24.0701 58.7119C28.7321 58.7119 32.8114 54.6327 32.8114 49.9707C32.8114 45.3087 28.7321 41.2294 24.0701 41.2294Z" fill="#09648C"/>
</svg>
