<svg width="73" height="73" viewBox="0 0 73 73" fill="none" xmlns="http://www.w3.org/2000/svg">
<path d="M18.25 13.6874C18.25 9.42909 26.4625 6.08325 36.5 6.08325C46.5375 6.08325 54.75 9.42909 54.75 13.6874C54.75 14.9041 54.1416 15.8166 53.2291 16.7291C50.4916 13.9916 44.1041 12.1666 36.5 12.1666C28.8958 12.1666 22.5083 13.9916 19.7708 16.7291C18.8583 15.8166 18.25 14.9041 18.25 13.6874ZM36.5 15.2083C29.8083 15.2083 24.6375 16.7291 22.5083 18.5541C25.8541 20.0749 30.7208 21.2916 36.5 21.2916C42.2791 21.2916 47.1458 20.0749 50.4916 18.5541C48.3625 16.7291 43.1916 15.2083 36.5 15.2083ZM42.5833 24.3333C42.5833 27.6791 39.8458 30.4166 36.5 30.4166C33.1541 30.4166 30.4166 27.6791 30.4166 24.3333V24.0291C28.2875 23.7249 26.1583 23.4208 24.3333 22.8124V24.3333C24.3333 31.0249 29.8083 36.4999 36.5 36.4999C43.1916 36.4999 48.6666 31.0249 48.6666 24.3333C48.6666 23.7249 48.6666 23.1166 48.3625 22.5083C46.5375 23.1166 44.4083 23.4208 42.2791 23.7249C42.5833 24.0291 42.5833 24.0291 42.5833 24.3333ZM49.8833 41.9749L47.7541 45.6249L47.1458 47.1457C51.7083 48.6666 55.0541 50.4916 55.0541 51.7082V61.1374H42.2791L39.5416 45.6249L42.2791 39.8458C40.4541 39.8458 38.6291 39.5416 36.5 39.5416C34.3708 39.5416 32.5458 39.5416 30.7208 39.8458L33.4583 45.6249L30.7208 61.1374H17.9458V51.7082C17.9458 50.4916 21.2916 48.6666 25.8541 47.1457L25.2458 45.6249L23.4208 41.9749C17.3375 43.7999 12.1666 47.1457 12.1666 51.7082V66.9166H60.8333V51.7082C60.8333 47.1457 55.6625 43.7999 49.8833 41.9749Z" fill="#09648C"/>
</svg>
