<svg width="39" height="39" viewBox="0 0 39 39" fill="none" xmlns="http://www.w3.org/2000/svg">
<path d="M18.2222 8.07906C18.7264 7.67516 19.3532 7.45508 19.9992 7.45508C20.6452 7.45508 21.2719 7.67516 21.7761 8.07906L30.3074 14.9041C30.9817 15.4436 31.375 16.2609 31.375 17.1254V28.5313C31.375 29.2855 31.0754 30.0088 30.5421 30.5421C30.0088 31.0755 29.2855 31.3751 28.5312 31.3751H22.8438C22.5205 31.3751 22.2105 31.2467 21.982 31.0181C21.7534 30.7895 21.625 30.4795 21.625 30.1563V21.6251H18.375V30.1563C18.375 30.4795 18.2466 30.7895 18.018 31.0181C17.7895 31.2467 17.4795 31.3751 17.1562 31.3751H11.4688C10.7145 31.3751 9.99122 31.0755 9.45792 30.5421C8.92461 30.0088 8.625 29.2855 8.625 28.5313V17.1238C8.625 16.2609 9.01825 15.4436 9.69262 14.9041L18.2222 8.07906ZM20.2535 9.98193C20.1815 9.92445 20.0921 9.89314 20 9.89314C19.9079 9.89314 19.8185 9.92445 19.7465 9.98193L11.2153 16.8069C11.1675 16.8451 11.1289 16.8936 11.1024 16.9487C11.076 17.0039 11.0623 17.0643 11.0625 17.1254V28.5313C11.0625 28.7556 11.2445 28.9376 11.4688 28.9376H15.9375V20.4063C15.9375 20.0831 16.0659 19.7731 16.2945 19.5445C16.523 19.316 16.833 19.1876 17.1562 19.1876H22.8438C23.167 19.1876 23.477 19.316 23.7055 19.5445C23.9341 19.7731 24.0625 20.0831 24.0625 20.4063V28.9376H28.5312C28.639 28.9376 28.7423 28.8948 28.8185 28.8186C28.8947 28.7424 28.9375 28.6391 28.9375 28.5313V17.1238C28.9374 17.0629 28.9236 17.0028 28.8972 16.948C28.8708 16.8931 28.8323 16.8449 28.7847 16.8069L20.2535 9.98193Z" fill="#F8F8F8"/>
</svg>
