<svg width="30" height="30" viewBox="0 0 30 30" fill="none" xmlns="http://www.w3.org/2000/svg">
<path d="M25 23.75V13.125C25 12.9309 24.9548 12.7396 24.868 12.566C24.7812 12.3924 24.6552 12.2414 24.5 12.125L15.75 5.5625C15.5336 5.40022 15.2705 5.3125 15 5.3125C14.7295 5.3125 14.4664 5.40022 14.25 5.5625L5.5 12.125C5.34476 12.2414 5.21875 12.3924 5.13197 12.566C5.04518 12.7396 5 12.9309 5 13.125V23.75C5 24.0815 5.1317 24.3995 5.36612 24.6339C5.60054 24.8683 5.91848 25 6.25 25H11.25C11.5815 25 11.8995 24.8683 12.1339 24.6339C12.3683 24.3995 12.5 24.0815 12.5 23.75V20C12.5 19.6685 12.6317 19.3505 12.8661 19.1161C13.1005 18.8817 13.4185 18.75 13.75 18.75H16.25C16.5815 18.75 16.8995 18.8817 17.1339 19.1161C17.3683 19.3505 17.5 19.6685 17.5 20V23.75C17.5 24.0815 17.6317 24.3995 17.8661 24.6339C18.1005 24.8683 18.4185 25 18.75 25H23.75C24.0815 25 24.3995 24.8683 24.6339 24.6339C24.8683 24.3995 25 24.0815 25 23.75Z" stroke="white" stroke-width="2" stroke-linecap="round" stroke-linejoin="round"/>
</svg>
