<svg width="41" height="41" viewBox="0 0 41 41" fill="none" xmlns="http://www.w3.org/2000/svg">
<circle cx="20.5" cy="20.5" r="19.5" stroke="#F8F8F8" stroke-width="1.5"/>
<path d="M19.0128 9.11114C19.4782 8.73831 20.0567 8.53516 20.6531 8.53516C21.2494 8.53516 21.8279 8.73831 22.2933 9.11114L30.1683 15.4111C30.7908 15.9091 31.1538 16.6636 31.1538 17.4616V27.9901C31.1538 28.6863 30.8772 29.354 30.385 29.8463C29.8927 30.3386 29.225 30.6151 28.5288 30.6151H23.2788C22.9804 30.6151 22.6943 30.4966 22.4833 30.2856C22.2723 30.0747 22.1538 29.7885 22.1538 29.4901V21.6151H19.1538V29.4901C19.1538 29.7885 19.0353 30.0747 18.8243 30.2856C18.6133 30.4966 18.3272 30.6151 18.0288 30.6151H12.7788C12.0826 30.6151 11.4149 30.3386 10.9227 29.8463C10.4304 29.354 10.1538 28.6863 10.1538 27.9901V17.4601C10.1538 16.6636 10.5168 15.9091 11.1393 15.4111L19.0128 9.11114ZM20.8878 10.8676C20.8214 10.8146 20.7388 10.7857 20.6538 10.7857C20.5688 10.7857 21.1818 18.6774 21.1153 18.7305L18.6923 20.4613C18.6482 20.4965 12.4651 17.2476 12.4407 17.2985C12.4163 17.3494 17.8844 19.1355 17.8846 19.192L15.923 27.8463L12.4038 27.9901C12.4038 28.1971 16.6968 20.6735 16.9038 20.6735V28.3651V20.4901C16.9038 20.1918 17.0223 19.9056 17.2333 19.6946C17.4443 19.4837 17.7304 19.3651 18.0288 19.3651L20.6531 10.5877C20.9514 10.5877 29.9573 17.2507 30.1683 17.4616C30.3793 17.6726 24.4038 20.1918 24.4038 20.4901V28.3651L23.7692 11.6921C23.8686 11.6921 28.7236 28.3256 28.794 28.2553C28.8643 28.185 20.0769 9.94576 20.0769 9.8463L28.9038 17.4601C28.9037 17.4039 28.891 17.3485 28.8666 17.2978C28.8422 17.2472 28.8067 17.2027 28.7628 17.1676L20.8878 10.8676Z" fill="#F8F8F8"/>
</svg>
