<svg width="28" height="28" viewBox="0 0 28 28" fill="none" xmlns="http://www.w3.org/2000/svg">
<path d="M5.83334 24.5C5.19167 24.5 4.64217 24.2713 4.18484 23.814C3.7275 23.3567 3.49922 22.8076 3.5 22.1667V5.83334C3.5 5.19167 3.72867 4.64217 4.186 4.18484C4.64334 3.7275 5.19245 3.49922 5.83334 3.5H22.1667C22.8083 3.5 23.3578 3.72867 23.8152 4.186C24.2725 4.64334 24.5008 5.19245 24.5 5.83334V22.1667C24.5 22.8083 24.2713 23.3578 23.814 23.8152C23.3567 24.2725 22.8076 24.5008 22.1667 24.5H5.83334ZM5.83334 9.7125H22.1667V5.83334H5.83334V9.7125ZM5.83334 15.9542H22.1667V12.0458H5.83334V15.9542ZM5.83334 22.1667H22.1667V18.2875H5.83334V22.1667ZM7 8.925V6.59167H9.33334V8.925H7ZM7 15.1667V12.8333H9.33334V15.1667H7ZM7 21.4083V19.075H9.33334V21.4083H7Z" fill="#09648C"/>
</svg>
