<svg width="28" height="28" viewBox="0 0 28 28" fill="none" xmlns="http://www.w3.org/2000/svg">
<path d="M10.1208 18.9875C10.3347 18.7347 10.4417 18.4481 10.4417 18.1277C10.4417 17.8072 10.3347 17.5397 10.1208 17.325L7.9625 15.1667H16.3333C16.6639 15.1667 16.9412 15.0547 17.1652 14.8307C17.3892 14.6067 17.5008 14.3298 17.5 14C17.5 13.6694 17.388 13.3922 17.164 13.1682C16.94 12.9442 16.6631 12.8326 16.3333 12.8333H7.9625L10.1208 10.675C10.3542 10.4417 10.4708 10.1644 10.4708 9.84317C10.4708 9.52195 10.3542 9.24506 10.1208 9.0125C9.90694 8.77917 9.63939 8.6625 9.31816 8.6625C8.99694 8.6625 8.72977 8.76945 8.51666 8.98334L4.31666 13.1833C4.2 13.3 4.11716 13.4264 4.06816 13.5625C4.01916 13.6986 3.99505 13.8444 3.99583 14C3.99583 14.1556 4.01994 14.3014 4.06816 14.4375C4.11638 14.5736 4.19922 14.7 4.31666 14.8167L8.51666 19.0167C8.76944 19.2694 9.04672 19.3814 9.3485 19.3527C9.65027 19.3239 9.90772 19.2022 10.1208 18.9875ZM22.1667 24.5C22.8083 24.5 23.3578 24.2713 23.8152 23.814C24.2725 23.3567 24.5008 22.8076 24.5 22.1667V5.83334C24.5 5.19167 24.2713 4.64217 23.814 4.18484C23.3567 3.7275 22.8076 3.49922 22.1667 3.5H15.1667C14.8361 3.5 14.5588 3.612 14.3348 3.836C14.1108 4.06 13.9992 4.33689 14 4.66667C14 4.99722 14.112 5.2745 14.336 5.4985C14.56 5.7225 14.8369 5.83411 15.1667 5.83334H22.1667V22.1667H15.1667C14.8361 22.1667 14.5588 22.2787 14.3348 22.5027C14.1108 22.7267 13.9992 23.0036 14 23.3333C14 23.6639 14.112 23.9412 14.336 24.1652C14.56 24.3892 14.8369 24.5008 15.1667 24.5H22.1667Z" fill="#09648C"/>
</svg>
