<svg width="41" height="41" viewBox="0 0 41 41" fill="none" xmlns="http://www.w3.org/2000/svg">
<path d="M9.08325 9.0835V19.9168H32.9166V9.0835H9.08325ZM22.0833 15.5835H12.3333V13.4168H22.0833V15.5835ZM25.3333 15.5835C25.119 15.5835 24.9095 15.52 24.7314 15.4009C24.5532 15.2819 24.4144 15.1127 24.3324 14.9147C24.2504 14.7168 24.2289 14.499 24.2707 14.2888C24.3125 14.0787 24.4157 13.8856 24.5672 13.7341C24.7187 13.5826 24.9118 13.4794 25.1219 13.4376C25.3321 13.3958 25.5499 13.4173 25.7478 13.4993C25.9458 13.5813 26.115 13.7201 26.234 13.8983C26.3531 14.0764 26.4166 14.2859 26.4166 14.5002C26.4166 14.7875 26.3025 15.063 26.0993 15.2662C25.8961 15.4694 25.6206 15.5835 25.3333 15.5835ZM28.5833 15.5835C28.369 15.5835 28.1595 15.52 27.9814 15.4009C27.8032 15.2819 27.6644 15.1127 27.5824 14.9147C27.5004 14.7168 27.4789 14.499 27.5207 14.2888C27.5625 14.0787 27.6657 13.8856 27.8172 13.7341C27.9687 13.5826 28.1618 13.4794 28.3719 13.4376C28.582 13.3958 28.7999 13.4173 28.9978 13.4993C29.1958 13.5813 29.365 13.7201 29.484 13.8983C29.6031 14.0764 29.6666 14.2859 29.6666 14.5002C29.6666 14.7875 29.5525 15.063 29.3493 15.2662C29.1461 15.4694 28.8706 15.5835 28.5833 15.5835ZM32.5808 27.901L33.8158 26.8177L32.7324 24.9435L31.1616 25.4743C30.8138 25.1812 30.418 24.9503 29.9916 24.7918L29.6666 23.1668H27.4999L27.1749 24.781C26.7485 24.9394 26.3527 25.1703 26.0049 25.4635L24.4341 24.9327L23.3508 26.8068L24.5858 27.8902C24.4991 28.341 24.4991 28.8043 24.5858 29.2552L23.3508 30.3385L24.4341 32.2127L26.0049 31.6818C26.3527 31.975 26.7485 32.2059 27.1749 32.3643L27.4999 34.0002H29.6666L29.9916 32.386C30.418 32.2276 30.8138 31.9967 31.1616 31.7035L32.7324 32.2343L33.8158 30.3602L32.5808 29.2768C32.6674 28.8223 32.6674 28.3555 32.5808 27.901ZM28.5833 30.7502C28.1547 30.7502 27.7358 30.6231 27.3795 30.385C27.0232 30.1469 26.7455 29.8085 26.5815 29.4126C26.4175 29.0167 26.3746 28.5811 26.4582 28.1608C26.5418 27.7405 26.7482 27.3544 27.0512 27.0514C27.3542 26.7484 27.7403 26.5421 28.1606 26.4585C28.5808 26.3749 29.0165 26.4178 29.4124 26.5818C29.8083 26.7457 30.1467 27.0235 30.3848 27.3798C30.6228 27.7361 30.7499 28.155 30.7499 28.5835C30.7482 29.1576 30.5194 29.7077 30.1134 30.1137C29.7075 30.5196 29.1574 30.7484 28.5833 30.7502Z" fill="#F8F8F8"/>
<path d="M20.9999 28.5835H12.3333V26.4168H21.3184C21.8628 24.602 23.0661 23.0564 24.6919 22.0835H9.08325V32.9168H22.3649C21.4753 31.647 20.9987 30.1339 20.9999 28.5835Z" fill="#F8F8F8"/>
<circle cx="20.5" cy="20.5" r="19.5" stroke="#F8F8F8" stroke-width="1.5"/>
</svg>
