<svg width="39" height="39" viewBox="0 0 39 39" fill="none" xmlns="http://www.w3.org/2000/svg">
<path d="M31.5808 26.901L32.8158 25.8177L31.7324 23.9435L30.1616 24.4743C29.8138 24.1812 29.418 23.9503 28.9916 23.7918L28.6666 22.1668H26.4999L26.1749 23.781C25.7485 23.9394 25.3527 24.1703 25.0049 24.4635L23.4341 23.9327L22.3508 25.8068L23.5858 26.8902C23.4991 27.341 23.4991 27.8043 23.5858 28.2552L22.3508 29.3385L23.4341 31.2127L25.0049 30.6818C25.3527 30.975 25.7485 31.2059 26.1749 31.3643L26.4999 33.0002H28.6666L28.9916 31.386C29.418 31.2276 29.8138 30.9967 30.1616 30.7035L31.7324 31.2343L32.8158 29.3602L31.5808 28.2768C31.6674 27.8223 31.6674 27.3555 31.5808 26.901ZM27.5833 29.7502C27.1547 29.7502 26.7358 29.6231 26.3795 29.385C26.0232 29.1469 25.7455 28.8085 25.5815 28.4126C25.4175 28.0167 25.3746 27.5811 25.4582 27.1608C25.5418 26.7405 25.7482 26.3544 26.0512 26.0514C26.3542 25.7484 26.7403 25.5421 27.1606 25.4585C27.5808 25.3749 28.0165 25.4178 28.4124 25.5818C28.8083 25.7457 29.1467 26.0235 29.3848 26.3798C29.6228 26.7361 29.7499 27.155 29.7499 27.5835C29.7482 28.1576 29.5194 28.7077 29.1134 29.1137C28.7075 29.5196 28.1574 29.7484 27.5833 29.7502ZM31.9166 18.9168H8.08325V8.0835H31.9166V18.9168ZM10.2499 16.7502H29.7499V10.2502H10.2499V16.7502ZM21.0833 12.4168H11.3333V14.5835H21.0833V12.4168ZM24.3333 12.4168C24.119 12.4168 23.9095 12.4804 23.7314 12.5994C23.5532 12.7184 23.4144 12.8876 23.3324 13.0856C23.2504 13.2835 23.2289 13.5014 23.2707 13.7115C23.3125 13.9217 23.4157 14.1147 23.5672 14.2662C23.7187 14.4177 23.9118 14.5209 24.1219 14.5627C24.3321 14.6045 24.5499 14.583 24.7478 14.501C24.9458 14.419 25.115 14.2802 25.234 14.102C25.3531 13.9239 25.4166 13.7144 25.4166 13.5002C25.4166 13.2128 25.3025 12.9373 25.0993 12.7341C24.8961 12.531 24.6206 12.4168 24.3333 12.4168ZM27.5833 12.4168C27.369 12.4168 27.1595 12.4804 26.9814 12.5994C26.8032 12.7184 26.6644 12.8876 26.5824 13.0856C26.5004 13.2835 26.4789 13.5014 26.5207 13.7115C26.5625 13.9217 26.6657 14.1147 26.8172 14.2662C26.9687 14.4177 27.1618 14.5209 27.3719 14.5627C27.582 14.6045 27.7999 14.583 27.9978 14.501C28.1958 14.419 28.365 14.2802 28.484 14.102C28.6031 13.9239 28.6666 13.7144 28.6666 13.5002C28.6666 13.2128 28.5525 12.9373 28.3493 12.7341C28.1461 12.531 27.8706 12.4168 27.5833 12.4168Z" fill="#F8F8F8"/>
<path d="M20.3184 29.7502H10.2499V23.2502H21.3649C21.9794 22.3722 22.7724 21.6339 23.6919 21.0835H8.08325V31.9168H21.3649C20.9024 31.2553 20.5491 30.5237 20.3184 29.7502Z" fill="#F8F8F8"/>
<path d="M11.3333 27.5832H19.9999C20.0006 26.8493 20.1079 26.1195 20.3184 25.4165H11.3333V27.5832Z" fill="#F8F8F8"/>
</svg>
