<svg width="36" height="36" viewBox="0 0 36 36" fill="none" xmlns="http://www.w3.org/2000/svg">
<path d="M15 18C13.35 18 11.9375 17.4125 10.7625 16.2375C9.5875 15.0625 9 13.65 9 12C9 10.35 9.5875 8.9375 10.7625 7.7625C11.9375 6.5875 13.35 6 15 6C16.65 6 18.0625 6.5875 19.2375 7.7625C20.4125 8.9375 21 10.35 21 12C21 13.65 20.4125 15.0625 19.2375 16.2375C18.0625 17.4125 16.65 18 15 18ZM3 30V25.8C3 24.975 3.2125 24.2 3.6375 23.475C4.0625 22.75 4.65 22.2 5.4 21.825C6.675 21.175 8.1125 20.625 9.7125 20.175C11.3125 19.725 13.075 19.5 15 19.5H15.525C15.675 19.5 15.825 19.525 15.975 19.575C15.775 20.025 15.606 20.494 15.468 20.982C15.33 21.47 15.224 21.976 15.15 22.5H15C13.225 22.5 11.6315 22.725 10.2195 23.175C8.8075 23.625 7.651 24.075 6.75 24.525C6.525 24.65 6.3435 24.825 6.2055 25.05C6.0675 25.275 5.999 25.525 6 25.8V27H15.45C15.6 27.525 15.8 28.044 16.05 28.557C16.3 29.07 16.575 29.551 16.875 30H3ZM24 31.5L23.55 29.25C23.25 29.125 22.9685 28.9935 22.7055 28.8555C22.4425 28.7175 22.174 28.549 21.9 28.35L19.725 29.025L18.225 26.475L19.95 24.975C19.9 24.625 19.875 24.3 19.875 24C19.875 23.7 19.9 23.375 19.95 23.025L18.225 21.525L19.725 18.975L21.9 19.65C22.175 19.45 22.444 19.2815 22.707 19.1445C22.97 19.0075 23.251 18.876 23.55 18.75L24 16.5H27L27.45 18.75C27.75 18.875 28.0315 19.0125 28.2945 19.1625C28.5575 19.3125 28.826 19.5 29.1 19.725L31.275 18.975L32.775 21.6L31.05 23.1C31.1 23.4 31.125 23.7125 31.125 24.0375C31.125 24.3625 31.1 24.675 31.05 24.975L32.775 26.475L31.275 29.025L29.1 28.35C28.825 28.55 28.5565 28.719 28.2945 28.857C28.0325 28.995 27.751 29.126 27.45 29.25L27 31.5H24ZM25.5 27C26.325 27 27.0315 26.706 27.6195 26.118C28.2075 25.53 28.501 24.824 28.5 24C28.5 23.175 28.206 22.4685 27.618 21.8805C27.03 21.2925 26.324 20.999 25.5 21C24.675 21 23.9685 21.294 23.3805 21.882C22.7925 22.47 22.499 23.176 22.5 24C22.5 24.825 22.794 25.5315 23.382 26.1195C23.97 26.7075 24.676 27.001 25.5 27ZM15 15C15.825 15 16.5315 14.706 17.1195 14.118C17.7075 13.53 18.001 12.824 18 12C18 11.175 17.706 10.4685 17.118 9.8805C16.53 9.2925 15.824 8.999 15 9C14.175 9 13.4685 9.294 12.8805 9.882C12.2925 10.47 11.999 11.176 12 12C12 12.825 12.294 13.5315 12.882 14.1195C13.47 14.7075 14.176 15.001 15 15Z" fill="white"/>
</svg>
