<svg width="136" height="160" viewBox="0 0 136 160" fill="none" xmlns="http://www.w3.org/2000/svg">
<path id="Vector" d="M43.8106 0.570117L0.69238 157.152L5.13276 158.862L48.2391 2.31533L43.8106 0.570117ZM94.9868 0.912613L90.5354 2.5984L131.548 159.708L136 158.058L94.9868 0.912613ZM67.0562 1.58348L66.7756 8.58396L71.9166 8.61837L71.7298 1.61476L67.0562 1.58348ZM66.5629 14.1844L66.2823 21.1849L72.2412 21.2248L72.0544 14.2212L66.5629 14.1844ZM66.0404 26.7852L65.5857 37.9859L72.713 38.0336L72.4082 26.8278L66.0404 26.7852ZM65.3729 43.5864L64.6763 60.3874L73.3225 60.4453L72.8507 43.6364L65.3729 43.5864ZM64.3957 67.3879L63.5541 88.3894L74.0697 88.4597L73.5093 67.4489L64.3957 67.3879ZM63.235 96.7901L62.2192 121.992L74.9548 122.077L74.2764 96.864L63.235 96.7901ZM61.8323 131.792L60.7487 158.394L75.9379 158.496L75.2105 131.882L61.8323 131.792Z" fill="#09648C"/>
</svg>
