<svg width="30" height="30" viewBox="0 0 30 30" fill="none" xmlns="http://www.w3.org/2000/svg">
<path d="M11.25 6.5376C11.25 5.79168 11.5463 5.07631 12.0738 4.54886C12.6012 4.02141 13.3166 3.7251 14.0625 3.7251H15.9375C16.6834 3.7251 17.3988 4.02141 17.9262 4.54886C18.4537 5.07631 18.75 5.79168 18.75 6.5376V26.2501H11.25V6.5376ZM9.375 12.5001H6.5625C5.81658 12.5001 5.10121 12.7964 4.57376 13.3239C4.04632 13.8513 3.75 14.5667 3.75 15.3126V25.3126C3.75 25.8313 4.17 26.2501 4.6875 26.2501H9.375V12.5001ZM20.625 26.2501H25.3125C25.5611 26.2501 25.7996 26.1513 25.9754 25.9755C26.1512 25.7997 26.25 25.5612 26.25 25.3126V11.5626C26.25 10.8167 25.9537 10.1013 25.4262 9.57386C24.8988 9.04641 24.1834 8.7501 23.4375 8.7501H20.625V26.2501Z" fill="#09648C"/>
</svg>
