<svg width="41" height="41" viewBox="0 0 41 41" fill="none" xmlns="http://www.w3.org/2000/svg">
<circle cx="20.5" cy="20.5" r="19.5" stroke="#F8F8F8" stroke-width="1.5"/>
<path d="M16.75 13.666C16.75 13.0196 17.0068 12.3996 17.4639 11.9424C17.921 11.4853 18.541 11.2285 19.1875 11.2285H20.8125C21.459 11.2285 22.079 11.4853 22.5361 11.9424C22.9932 12.3996 23.25 13.0196 23.25 13.666V30.7502H16.75V13.666ZM15.125 18.8335H12.6875C12.041 18.8335 11.421 19.0903 10.9639 19.5474C10.5068 20.0046 10.25 20.6246 10.25 21.271V29.9377C10.25 30.3873 10.614 30.7502 11.0625 30.7502H15.125V18.8335ZM24.875 30.7502H28.9375C29.153 30.7502 29.3597 30.6646 29.512 30.5122C29.6644 30.3598 29.75 30.1532 29.75 29.9377V18.021C29.75 17.3746 29.4932 16.7546 29.0361 16.2974C28.579 15.8403 27.959 15.5835 27.3125 15.5835H24.875V30.7502Z" fill="#F8F8F8"/>
</svg>
