<svg width="39" height="39" viewBox="0 0 39 39" fill="none" xmlns="http://www.w3.org/2000/svg">
<path d="M17.5 13.6V27.9H22.7V13.6C22.7 13.2552 22.563 12.9246 22.3192 12.6808C22.0754 12.437 21.7448 12.3 21.4 12.3H18.8C18.4552 12.3 18.1246 12.437 17.8808 12.6808C17.637 12.9246 17.5 13.2552 17.5 13.6ZM16.2 18.8V13.6C16.2 12.9104 16.4739 12.2491 16.9615 11.7615C17.4491 11.2739 18.1104 11 18.8 11H21.4C22.0896 11 22.7509 11.2739 23.2385 11.7615C23.7261 12.2491 24 12.9104 24 13.6V14.9H26.6C27.2896 14.9 27.9509 15.1739 28.4385 15.6615C28.9261 16.1491 29.2 16.8104 29.2 17.5V28.55C29.2 28.7224 29.1315 28.8877 29.0096 29.0096C28.8877 29.1315 28.7224 29.2 28.55 29.2H11.65C11.4776 29.2 11.3123 29.1315 11.1904 29.0096C11.0685 28.8877 11 28.7224 11 28.55V21.4C11 20.7104 11.2739 20.0491 11.7615 19.5615C12.2491 19.0739 12.9104 18.8 13.6 18.8H16.2ZM16.2 27.9V20.1H13.6C13.2552 20.1 12.9246 20.237 12.6808 20.4808C12.437 20.7246 12.3 21.0552 12.3 21.4V27.9H16.2ZM24 27.9H27.9V17.5C27.9 17.1552 27.763 16.8246 27.5192 16.5808C27.2754 16.337 26.9448 16.2 26.6 16.2H24V27.9Z" fill="#F8F8F8" stroke="#F8F8F8" stroke-width="0.7"/>
</svg>
